<?xml version="1.0" standalone="no"?>
<!DOCTYPE svg PUBLIC "-//W3C//DTD SVG 20010904//EN"
 "http://www.w3.org/TR/2001/REC-SVG-20010904/DTD/svg10.dtd">
<svg version="1.0" xmlns="http://www.w3.org/2000/svg"
 width="300.000000pt" height="300.000000pt" viewBox="0 0 300.000000 300.000000"
 preserveAspectRatio="xMidYMid meet">
<metadata>
Created by potrace 1.10, written by Peter Selinger 2001-2011
</metadata>
<g transform="translate(0.000000,300.000000) scale(0.100000,-0.100000)"
fill="#000000" stroke="none">
<path d="M1280 2355 c-316 -67 -571 -318 -636 -624 -18 -87 -18 -269 1 -351
39 -167 128 -319 252 -429 l57 -51 -31 -96 c-52 -156 -43 -160 195 -96 168 46
183 48 243 40 214 -31 477 63 648 232 357 351 312 946 -94 1235 -75 54 -189
109 -270 131 -82 22 -282 27 -365 9z m313 -55 c247 -46 485 -258 562 -503 118
-370 -46 -756 -390 -921 -101 -49 -174 -66 -302 -73 l-113 -6 0 81 c0 70 3 86
25 118 14 20 25 48 25 61 0 42 18 63 53 63 18 0 50 9 73 19 40 18 104 77 104
96 0 6 -25 23 -55 40 -53 28 -73 54 -60 75 10 16 34 12 86 -17 27 -14 51 -24
53 -22 2 2 6 16 10 30 5 25 1 30 -52 57 -39 21 -58 37 -60 52 -7 42 13 45 76
12 l60 -32 6 32 c4 18 3 34 -1 36 -48 17 -108 61 -111 80 -5 36 25 39 81 7 40
-22 51 -25 58 -14 19 30 9 49 -39 73 -59 30 -76 49 -67 76 8 27 19 25 81 -10
44 -24 53 -27 58 -14 14 36 5 51 -44 78 -51 28 -71 51 -63 74 7 19 37 14 84
-13 56 -32 59 -31 59 5 0 115 -124 196 -317 207 -106 7 -146 -1 -188 -39 -40
-35 -43 -44 -15 -53 11 -3 20 -12 20 -20 0 -20 -30 -47 -46 -41 -15 6 -19 1
-28 -36 -5 -23 -3 -28 13 -28 10 0 21 -7 25 -15 7 -18 -19 -45 -45 -45 -10 0
-19 -6 -19 -14 0 -8 -3 -21 -6 -29 -3 -9 3 -16 15 -20 31 -8 27 -45 -6 -60
-16 -6 -31 -16 -35 -22 -13 -18 -9 -45 7 -45 21 0 30 -27 15 -45 -7 -8 -21
-15 -31 -15 -30 0 -36 -46 -9 -68 27 -22 19 -47 -21 -61 -27 -9 -29 -14 -29
-61 0 -28 6 -65 14 -84 16 -37 60 -76 87 -76 24 0 24 -12 -1 -35 -28 -25 -35
-75 -16 -120 11 -25 16 -69 16 -136 0 -88 -2 -99 -17 -99 -10 0 -62 -13 -115
-29 -54 -15 -98 -24 -98 -20 0 4 11 39 25 77 14 38 25 80 25 93 0 16 -22 43
-71 88 -136 125 -214 267 -245 442 -67 384 176 759 557 859 84 22 251 26 342
10z m-59 -295 c91 -19 134 -36 175 -71 45 -37 41 -56 -9 -48 -31 5 -45 3 -60
-11 -22 -20 -26 -55 -10 -85 7 -13 6 -19 -5 -23 -7 -3 -21 -17 -31 -32 -14
-21 -15 -30 -4 -56 12 -28 11 -32 -13 -54 -27 -22 -38 -75 -17 -75 18 0 10
-22 -16 -47 -23 -21 -25 -29 -20 -67 5 -33 3 -46 -9 -56 -45 -37 -33 -95 25
-125 17 -9 30 -22 30 -30 0 -23 -48 -53 -106 -65 -41 -9 -60 -19 -76 -40 l-21
-29 -34 29 c-36 32 -53 36 -84 20 -16 -9 -19 -7 -19 9 0 11 -16 33 -35 48 -45
35 -62 61 -70 106 -6 31 -3 40 20 61 24 22 28 23 52 11 15 -8 30 -12 35 -9 4
3 8 1 8 -3 0 -5 31 -14 69 -21 56 -11 73 -11 89 -1 31 20 44 54 30 83 -9 21
-7 29 16 56 30 36 30 40 14 74 -10 23 -8 28 14 46 26 20 32 60 15 87 -5 8 2
21 18 35 26 23 32 56 15 88 -8 16 -6 22 14 35 63 42 25 113 -74 138 -34 8 -69
14 -78 12 -9 -2 -22 -4 -29 -4 -6 -1 -19 -8 -27 -17 -14 -14 -16 -14 -16 0 0
9 11 18 25 22 14 3 23 9 20 14 -8 13 103 11 179 -5z m-70 -60 c55 -17 76 -31
76 -51 0 -26 -33 -32 -95 -18 -33 8 -72 16 -87 19 -18 4 -28 12 -28 23 0 43
48 53 134 27z m-144 -66 c0 -12 -29 -38 -42 -39 -15 0 -8 23 10 36 21 17 32
17 32 3z m125 -64 c57 -17 71 -33 51 -61 -12 -16 -17 -16 -79 -1 -36 10 -78
17 -92 17 -20 0 -25 5 -25 23 0 13 3 27 7 30 11 12 83 7 138 -8z m-161 -64 c3
-5 -5 -16 -19 -25 -25 -16 -30 -11 -19 18 7 17 29 21 38 7z m141 -63 c44 -14
58 -44 31 -64 -13 -9 -27 -9 -63 2 -25 8 -60 14 -78 14 -29 0 -55 15 -55 31 0
4 8 15 17 24 19 19 77 17 148 -7z m-189 -86 c-11 -12 -19 -13 -27 -5 -8 8 -4
15 13 27 28 20 39 3 14 -22z m138 -34 c51 -14 66 -25 66 -49 0 -27 -37 -32
-95 -14 -27 8 -63 15 -78 15 -32 0 -45 23 -27 45 15 18 77 20 134 3z m-150
-66 c7 -11 -41 -38 -50 -29 -9 9 15 37 32 37 7 0 15 -4 18 -8z m110 -58 c33
-9 64 -21 68 -27 23 -35 -14 -64 -59 -46 -15 6 -53 13 -83 17 -43 6 -56 11
-58 26 -5 22 22 46 51 46 10 0 47 -7 81 -16z m-11 -355 c16 -26 0 -68 -29 -75
-46 -12 -85 51 -52 84 17 17 68 11 81 -9z m-34 -109 l26 0 2 -95 c0 -70 -3
-95 -12 -95 -7 0 -27 -3 -44 -6 l-31 -6 0 107 c0 94 2 106 16 101 9 -3 28 -6
43 -6z"/>
<path d="M1426 2265 c-17 -6 -35 -12 -41 -13 -127 -30 -231 -89 -337 -191 -49
-47 -88 -89 -88 -95 0 -5 -6 -14 -14 -20 -17 -13 -94 -155 -99 -182 -2 -10 -7
-26 -10 -34 -37 -98 -42 -274 -13 -418 10 -45 49 -148 67 -174 11 -14 19 -29
19 -34 0 -15 87 -122 156 -189 39 -39 73 -77 77 -85 3 -10 6 -7 6 8 1 15 -27
53 -88 117 -100 106 -148 186 -193 319 -28 82 -31 104 -32 221 -1 146 16 221
79 345 110 215 319 365 572 410 40 7 70 17 67 21 -7 11 -89 7 -128 -6z"/>
<path d="M2070 2114 c0 -3 21 -29 46 -58 130 -144 206 -306 224 -480 32 -308
-116 -589 -391 -745 -102 -57 -260 -101 -367 -101 -31 0 -62 -4 -69 -8 -6 -4
30 -6 80 -6 94 2 172 10 188 20 5 3 18 7 29 10 11 2 28 6 38 8 25 6 130 57
178 89 56 35 174 151 211 207 33 50 92 168 98 197 2 10 10 38 17 63 22 71 28
168 16 279 -18 170 -110 355 -237 473 -33 32 -61 55 -61 52z"/>
<path d="M1245 694 c-49 -13 -108 -26 -130 -27 -28 -1 -40 -7 -40 -17 0 -17
29 -20 65 -7 25 9 43 14 88 23 13 3 42 11 65 19 22 8 44 12 49 9 4 -3 8 0 8 6
0 6 4 9 8 6 4 -2 14 -1 22 5 28 17 -42 8 -135 -17z"/>
</g>
</svg>
